<mxfile host="app.diagrams.net" modified="2024-05-09T08:35:20.740Z" agent="Mozilla/5.0 (Macintosh; Intel Mac OS X 10_15_7) AppleWebKit/537.36 (KHTML, like Gecko) Chrome/123.0.0.0 Safari/537.36" version="24.2.3" etag="9rZtOO4kUkU8mLCBgwez" type="github">
  <diagram name="Page-1" id="FwyTD02wG8nzwJKuyN3P">
    <mxGraphModel>
      <root>
        <mxCell id="0" />
        <mxCell id="1" parent="0" />
      </root>
    </mxGraphModel>
  </diagram>
</mxfile>
